<svg width="1728" height="136" viewBox="0 0 1728 136" fill="none" xmlns="http://www.w3.org/2000/svg">
<path d="M0 0H1728C1728 7.35438 1721.37 13.375 1714.04 13.9622C1706.59 14.559 1696.32 16.1538 1683.6 19.9836C1671.66 23.5788 1652.64 43.1004 1658.57 103.388C1658.83 106.03 1658.66 108.755 1657.89 111.295C1649.49 139.021 1640.04 135.902 1637.4 135.889C1629.45 135.85 1615.2 135.389 1608.6 105.414C1603.32 81.4334 1661.4 21.4824 1610.4 23.4808C1559.4 25.4791 1597.8 89.4268 1575 88.9272C1552.2 88.4276 1550.87 57.9526 1549.8 51.9575C1538.4 -11.9902 1525.49 22.2565 1509.6 21.4824C1492.26 20.6375 1495.2 1.99836 1462.2 6.99428C1429.2 11.9902 1418.4 23.9804 1377 18.4849C1335.6 12.9894 1346.95 55.1093 1318.8 55.4546C1302.15 55.6589 1295.84 27.5718 1279.85 24.4448C1277.86 24.0545 1275.81 24.4709 1273.87 25.0519C1251.88 31.6056 1227.94 36.0727 1195.2 15.9869C1170 5.99509 1177.92 9.83245 1150.8 9.99182C1076.4 36.4702 1024.2 42.9648 968.4 20.3155C968.4 20.3155 937.555 9.96123 917.4 9.99182C898.849 10.02 881.187 59.4846 861 59.5C839.133 59.5167 807 27.4775 787.8 20.4832C772.337 15.885 762.466 5.36157 749.296 8.77946C746.928 9.39404 744.897 10.8828 743.048 12.4845C722.396 30.3731 708.892 23.6226 706.8 22.4816C689.4 12.9894 690.42 10.73 680.4 11.4906C653.798 13.5098 665.35 33.4726 666.6 45.9624C667.85 58.4522 655.8 67.4448 643.2 65.946C630.6 64.4473 655.2 35.471 645.6 20.4832C636 5.4955 602.128 8.50892 587.4 8.49305C571.946 8.4764 541.522 25.0171 527.4 24.9796C505.643 24.9217 457.354 10.1039 439.2 9.99182C415.216 9.84378 375.61 39.7217 359 39.4677C331.617 39.049 323.894 17.7392 321 16.9861C293.933 9.94314 281.705 3.78274 256.424 19.2412C253.092 21.2782 248.854 22.8632 247.473 26.5155C244.6 34.1151 244.78 51.2083 244.799 67.0261C244.8 68.302 244.702 69.5862 244.395 70.8248C241.163 83.8999 231.269 86.7099 229 86.5C224.34 86.0689 213.127 91.5377 205.9 82.7711C203.332 79.6565 203.241 75.3185 203.778 71.3178C207.089 46.6667 199.846 38.7619 188.4 39.4677C173.939 40.3594 183.6 58.4522 161.4 58.4522C139.2 58.4522 137.419 13.8299 122.4 14.9877C83.7416 17.9681 100.8 82.4325 103.8 96.9207C106.8 111.409 82.5 88.5 80 111C77.5 133.5 64.3 97.991 62.5 87C60.7 76.009 73.5193 45.7334 64.8 24.9796C58.5384 10.0756 33.7172 22.6904 28.2 22.4816C22.5505 22.2678 16.5713 20.6813 11.5795 18.9362C4.25596 16.3761 0 9.14182 0 1.3837V0Z" fill="#FF8721"/>
</svg>
