<svg width="34" height="34" viewBox="0 0 34 34" fill="none" xmlns="http://www.w3.org/2000/svg">
<path d="M30.8125 6.37598H22.3125C21.1853 6.37598 20.1043 6.82374 19.3073 7.62077C18.5103 8.4178 18.0625 9.49881 18.0625 10.626V22.2776C18.0662 22.5518 17.9659 22.8172 17.7819 23.0205C17.5978 23.2238 17.3436 23.3499 17.0704 23.3733C16.9251 23.383 16.7793 23.3626 16.6421 23.3136C16.505 23.2645 16.3794 23.1878 16.2732 23.0881C16.1669 22.9885 16.0823 22.8681 16.0246 22.7344C15.9668 22.6006 15.9372 22.4565 15.9375 22.3108V10.626C15.9375 9.49881 15.4897 8.4178 14.6927 7.62077C13.8957 6.82374 12.8147 6.37598 11.6875 6.37598H3.1875C2.90571 6.37598 2.63546 6.48792 2.4362 6.68718C2.23694 6.88643 2.125 7.15668 2.125 7.43848V26.5635C2.125 26.8453 2.23694 27.1155 2.4362 27.3148C2.63546 27.514 2.90571 27.626 3.1875 27.626H12.75C13.594 27.626 14.4035 27.9607 15.0011 28.5568C15.5986 29.1528 15.9354 29.9615 15.9375 30.8055C15.9333 31.0224 15.9964 31.2354 16.1181 31.4149C16.2399 31.5945 16.4144 31.7319 16.6175 31.8082C16.7787 31.8705 16.9527 31.8924 17.1244 31.8722C17.296 31.852 17.4601 31.7902 17.6025 31.6922C17.7448 31.5942 17.8611 31.4629 17.9413 31.3098C18.0215 31.1567 18.0631 30.9863 18.0625 30.8135C18.0625 29.9681 18.3983 29.1573 18.9961 28.5596C19.5939 27.9618 20.4046 27.626 21.25 27.626H30.8125C31.0943 27.626 31.3645 27.514 31.5638 27.3148C31.7631 27.1155 31.875 26.8453 31.875 26.5635V7.43848C31.875 7.15668 31.7631 6.88643 31.5638 6.68718C31.3645 6.48792 31.0943 6.37598 30.8125 6.37598ZM27.625 22.3135H22.3484C22.0742 22.3172 21.8087 22.2169 21.6055 22.0328C21.4022 21.8488 21.2761 21.5946 21.2527 21.3214C21.243 21.176 21.2633 21.0303 21.3124 20.8931C21.3615 20.756 21.4382 20.6304 21.5378 20.5241C21.6375 20.4179 21.7579 20.3333 21.8916 20.2755C22.0253 20.2178 22.1695 20.1882 22.3152 20.1885H27.5918C27.866 20.1848 28.1314 20.2851 28.3347 20.4691C28.538 20.6532 28.664 20.9074 28.6875 21.1806C28.6971 21.3259 28.6768 21.4717 28.6278 21.6088C28.5787 21.746 28.502 21.8716 28.4023 21.9778C28.3027 22.0841 28.1823 22.1687 28.0485 22.2264C27.9148 22.2842 27.7707 22.3138 27.625 22.3135ZM27.625 18.0635H22.3484C22.0742 18.0672 21.8087 17.9669 21.6055 17.7828C21.4022 17.5988 21.2761 17.3446 21.2527 17.0714C21.243 16.926 21.2633 16.7803 21.3124 16.6431C21.3615 16.506 21.4382 16.3804 21.5378 16.2741C21.6375 16.1679 21.7579 16.0833 21.8916 16.0255C22.0253 15.9678 22.1695 15.9382 22.3152 15.9385H27.5918C27.866 15.9348 28.1314 16.0351 28.3347 16.2191C28.538 16.4032 28.664 16.6574 28.6875 16.9306C28.6971 17.0759 28.6768 17.2217 28.6278 17.3588C28.5787 17.496 28.502 17.6216 28.4023 17.7278C28.3027 17.8341 28.1823 17.9187 28.0485 17.9764C27.9148 18.0342 27.7707 18.0638 27.625 18.0635ZM27.625 13.8135H22.3484C22.0737 13.8178 21.8076 13.7179 21.6038 13.5338C21.3999 13.3496 21.2735 13.0951 21.25 12.8214C21.2404 12.676 21.2607 12.5303 21.3097 12.3931C21.3588 12.256 21.4355 12.1304 21.5352 12.0241C21.6348 11.9179 21.7552 11.8333 21.889 11.7755C22.0227 11.7178 22.1668 11.6882 22.3125 11.6885H27.5891C27.8638 11.6841 28.1299 11.7841 28.3337 11.9682C28.5376 12.1523 28.664 12.4069 28.6875 12.6806C28.6971 12.8259 28.6768 12.9717 28.6278 13.1088C28.5787 13.246 28.502 13.3716 28.4023 13.4778C28.3027 13.5841 28.1823 13.6687 28.0485 13.7264C27.9148 13.7842 27.7707 13.8138 27.625 13.8135Z" fill="white"/>
</svg>
