<svg width="35" height="34" viewBox="0 0 35 34" fill="none" xmlns="http://www.w3.org/2000/svg">
<path d="M13.5 15.127L14.9689 18.0635H12.0311L13.5 15.127ZM31.5625 7.43848V28.6885C31.5626 28.8697 31.5164 29.0479 31.4282 29.2062C31.3401 29.3645 31.2129 29.4976 31.0588 29.5929C30.9046 29.6882 30.7287 29.7425 30.5477 29.7507C30.3667 29.7588 30.1866 29.7205 30.0245 29.6394L26.25 27.7508L22.4755 29.6394C22.3279 29.7133 22.1651 29.7517 22 29.7517C21.8349 29.7517 21.6721 29.7133 21.5245 29.6394L17.75 27.7508L13.9755 29.6394C13.8279 29.7133 13.6651 29.7517 13.5 29.7517C13.3349 29.7517 13.1721 29.7133 13.0245 29.6394L9.25 27.7508L5.47547 29.6394C5.31342 29.7205 5.13333 29.7588 4.95231 29.7507C4.77129 29.7425 4.59535 29.6882 4.44123 29.5929C4.28711 29.4976 4.15992 29.3645 4.07175 29.2062C3.98359 29.0479 3.93737 28.8697 3.9375 28.6885V7.43848C3.9375 6.87489 4.16138 6.33439 4.5599 5.93587C4.95841 5.53736 5.49892 5.31348 6.0625 5.31348H29.4375C30.0011 5.31348 30.5416 5.53736 30.9401 5.93587C31.3386 6.33439 31.5625 6.87489 31.5625 7.43848ZM18.7009 20.7755L14.4509 12.2755C14.3628 12.0987 14.2271 11.95 14.0592 11.846C13.8912 11.742 13.6976 11.687 13.5 11.687C13.3024 11.687 13.1088 11.742 12.9408 11.846C12.7729 11.95 12.6372 12.0987 12.5491 12.2755L8.29906 20.7755C8.17296 21.0277 8.15221 21.3197 8.24138 21.5872C8.33055 21.8547 8.52233 22.0758 8.77453 22.2019C9.02674 22.328 9.3187 22.3488 9.58621 22.2596C9.85371 22.1704 10.0748 21.9786 10.2009 21.7264L10.9686 20.1885H16.0314L16.7991 21.7264C16.8615 21.8513 16.9479 21.9627 17.0534 22.0542C17.1589 22.1456 17.2813 22.2154 17.4138 22.2596C17.5462 22.3037 17.6861 22.3214 17.8254 22.3115C17.9646 22.3016 18.1006 22.2644 18.2255 22.2019C18.3503 22.1395 18.4617 22.053 18.5532 21.9476C18.6447 21.8421 18.7145 21.7196 18.7586 21.5872C18.8028 21.4547 18.8204 21.3149 18.8105 21.1756C18.8006 21.0363 18.7634 20.9004 18.7009 20.7755ZM28.375 17.001C28.375 16.7192 28.2631 16.4489 28.0638 16.2497C27.8645 16.0504 27.5943 15.9385 27.3125 15.9385H25.1875V13.8135C25.1875 13.5317 25.0756 13.2614 24.8763 13.0622C24.677 12.8629 24.4068 12.751 24.125 12.751C23.8432 12.751 23.573 12.8629 23.3737 13.0622C23.1744 13.2614 23.0625 13.5317 23.0625 13.8135V15.9385H20.9375C20.6557 15.9385 20.3855 16.0504 20.1862 16.2497C19.9869 16.4489 19.875 16.7192 19.875 17.001C19.875 17.2828 19.9869 17.553 20.1862 17.7523C20.3855 17.9515 20.6557 18.0635 20.9375 18.0635H23.0625V20.1885C23.0625 20.4703 23.1744 20.7405 23.3737 20.9398C23.573 21.139 23.8432 21.251 24.125 21.251C24.4068 21.251 24.677 21.139 24.8763 20.9398C25.0756 20.7405 25.1875 20.4703 25.1875 20.1885V18.0635H27.3125C27.5943 18.0635 27.8645 17.9515 28.0638 17.7523C28.2631 17.553 28.375 17.2828 28.375 17.001Z" fill="white"/>
</svg>
