<svg width="35" height="34" viewBox="0 0 35 34" fill="none" xmlns="http://www.w3.org/2000/svg">
<path d="M31.3125 14.3447V19.6572C31.3125 20.2208 31.0886 20.7613 30.6901 21.1598C30.2916 21.5583 29.7511 21.7822 29.1875 21.7822H22.2812V28.6885C22.2812 29.2521 22.0574 29.7926 21.6589 30.1911C21.2603 30.5896 20.7198 30.8135 20.1562 30.8135H14.8438C14.2802 30.8135 13.7397 30.5896 13.3411 30.1911C12.9426 29.7926 12.7188 29.2521 12.7188 28.6885V21.7822H5.8125C5.24891 21.7822 4.70841 21.5583 4.3099 21.1598C3.91138 20.7613 3.6875 20.2208 3.6875 19.6572V14.3447C3.6875 13.7811 3.91138 13.2406 4.3099 12.8421C4.70841 12.4436 5.24891 12.2197 5.8125 12.2197H12.7188V5.31348C12.7188 4.74989 12.9426 4.20939 13.3411 3.81087C13.7397 3.41236 14.2802 3.18848 14.8438 3.18848H20.1562C20.7198 3.18848 21.2603 3.41236 21.6589 3.81087C22.0574 4.20939 22.2812 4.74989 22.2812 5.31348V12.2197H29.1875C29.7511 12.2197 30.2916 12.4436 30.6901 12.8421C31.0886 13.2406 31.3125 13.7811 31.3125 14.3447Z" fill="white"/>
</svg>
